<svg xmlns="http://www.w3.org/2000/svg" xmlns:svg="http://www.w3.org/2000/svg" id="svg1396" width="250" height="250" version="1.1" viewBox="0 0 66.146 66.146"><metadata id="metadata1393"/><g id="layer1" transform="translate(0,-230.85415)"><path id="path42" d="M 125 0 A 125 125 0 0 0 0 125 A 125 125 0 0 0 125 250 L 125 225 A 100 100 0 0 1 25 125 A 100 100 0 0 1 125 25 L 125 0 z" transform="matrix(0.26458333,0,0,0.26458333,0,230.85415)" style="opacity:.999;fill:#fff;stroke-width:6.57241;stroke-linejoin:round"/><path id="path955" style="opacity:.999;fill:#fff;stroke-width:4.26569;stroke-linejoin:round" d="M 125 25 L 125 225 A 99.999996 99.999996 0 0 0 225 125 A 99.999996 99.999996 0 0 0 125 25 z M 187.48633 143.75 A 12.5 12.5 0 0 1 187.5 143.75 A 12.5 12.5 0 0 1 200 156.25 A 12.5 12.5 0 0 1 187.5 168.75 A 12.5 12.5 0 0 1 175 156.25 A 12.5 12.5 0 0 1 187.48633 143.75 z" transform="matrix(0.26458333,0,0,0.26458333,0,230.85415)"/></g></svg>